# xmcd CD database file
#
# Track frame offsets:
#	150
#	11348
#	29670
#	44233
#	66640
#	82273
#	103823
#	123998
#	140860
#
# Disc length: 2189 seconds
#
# Revision: 0
# Processed by: cddbd v1.4PL0 Copyright (c) Steve Scherf et al.
# Submitted via: CDex 1.50Beta7
#
DISCID=8f088b09
DTITLE=Arturo Sandoval - Populares
DYEAR=1900
DGENRE=Jazz
TTITLE0=La Bikina
TTITLE1=A Mi Manera
TTITLE2=Como llora Una Estrella
TTITLE3=Lamento Borincano
TTITLE4=Te Quiero
TTITLE5=Penelope
TTITLE6=Almendra
TTITLE7=Aguas de Marzo
TTITLE8=Rabo de Nube
EXTD=
EXTT0=
EXTT1=
EXTT2=
EXTT3=
EXTT4=
EXTT5=
EXTT6=
EXTT7=
EXTT8=
PLAYORDER=
